# xmcd
# 
# Track frame offsets:
#	150
#	11097
#	25820
#	38255
#	48102
#	59327
#	70995
#	83720
#	98792
#	109352
#	118842
#	127257
#	138480
#	158430
#	171130
#	185262
#	198670
#	208357
#
# Disc length: 2905 seconds
#
# Revision: 3
# Processed by: cddbd v1.4PL0 Copyright (c) Steve Scherf et al.
# Submitted via: Audio-CD-Archiv 2.10.441
#
DISCID=fc0b5712
DTITLE=Juke-Box - Country Hits Volume 2 CD1
DYEAR=1900
DGENRE=country
TTITLE0=Kris Kristofferson - Help Me Make It Through The Night
TTITLE1=Jeannie C. Riley - Harper Valley P.T.A.
TTITLE2=Johnny Cash /I Walk The Line
TTITLE3=Jimmy C. Newman - Alligator Man
TTITLE4=Dolly Parton - Dumb Blonde
TTITLE5=Roy Drusky - Another
TTITLE6=Anita Perras - TheTip Of My Fingers
TTITLE7=Kenny Rogers - ForThe Good Times
TTITLE8=Patsy Cline - I Can See An Angel
TTITLE9=Charlie Rich /Lonely Weekends
TTITLE10=Jerry Lee Lewis - Save The Last Dance For Me
TTITLE11=Roy Orbison - Love Hurts
TTITLE12=Gary Fjellgaard - Cowboy In Your Heart
TTITLE13=Willie Nelson - Any Old Arm Won`t Do
TTITLE14=David Allen Coe - Ride Me Down Easy
TTITLE15=Terry Carisse - Old Photographs
TTITLE16=Leroy Van Dyke - Honeycomb
TTITLE17=Dave Dudley - Truck Drivin`Son Of A Gun
EXTD=
EXTT0=
EXTT1=
EXTT2=
EXTT3=
EXTT4=
EXTT5=
EXTT6=
EXTT7=
EXTT8=
EXTT9=
EXTT10=
EXTT11=
EXTT12=
EXTT13=
EXTT14=
EXTT15=
EXTT16=
EXTT17=
PLAYORDER=
